<svg width="1425" height="153" viewBox="0 0 1425 153" fill="none" xmlns="http://www.w3.org/2000/svg">
<rect y="1" width="1425" height="150" rx="6" fill="#1F0000"/>
<mask id="mask0_253_11019" style="mask-type:alpha" maskUnits="userSpaceOnUse" x="0" y="0" width="172" height="153">
<rect width="172" height="153" fill="#D9D9D9"/>
</mask>
<g mask="url(#mask0_253_11019)">
<circle cx="-0.0147429" cy="52.632" r="4" transform="rotate(-32.8519 -0.0147429 52.632)" fill="#FDEA6A"/>
<circle cx="5.06338" cy="8.88029" r="4" transform="rotate(-32.8519 5.06338 8.88029)" fill="#FDEA6A"/>
<circle cx="23.5067" cy="37.4429" r="4" transform="rotate(-32.8519 23.5067 37.4429)" fill="#FDEA6A"/>
<circle cx="47.0282" cy="22.2537" r="4" transform="rotate(-32.8519 47.0282 22.2537)" fill="#FDEA6A"/>
<circle cx="70.5517" cy="7.06462" r="4" transform="rotate(-32.8519 70.5517 7.06462)" fill="#FDEA6A"/>
<circle cx="-4.75107" cy="96.1634" r="4" transform="rotate(-32.8519 -4.75107 96.1634)" fill="#FDEA6A"/>
<circle cx="13.6923" cy="124.726" r="4" transform="rotate(-32.8519 13.6923 124.726)" fill="#FDEA6A"/>
<circle cx="32.1356" cy="153.288" r="4" transform="rotate(-32.8519 32.1356 153.288)" fill="#FDEA6A"/>
<circle cx="18.7704" cy="80.9742" r="4" transform="rotate(-32.8519 18.7704 80.9742)" fill="#FDEA6A"/>
<circle cx="37.2138" cy="109.537" r="4" transform="rotate(-32.8519 37.2138 109.537)" fill="#FDEA6A"/>
<circle cx="55.6591" cy="138.099" r="4" transform="rotate(-32.8519 55.6591 138.099)" fill="#FDEA6A"/>
<circle cx="42.2938" cy="65.7851" r="4" transform="rotate(-32.8519 42.2938 65.7851)" fill="#FDEA6A"/>
<circle cx="60.7372" cy="94.3477" r="4" transform="rotate(-32.8519 60.7372 94.3477)" fill="#FDEA6A"/>
<circle cx="79.1806" cy="122.91" r="4" transform="rotate(-32.8519 79.1806 122.91)" fill="#FDEA6A"/>
<circle cx="65.8134" cy="50.596" r="4" transform="rotate(-32.8519 65.8134 50.596)" fill="#FDEA6A"/>
<circle cx="84.2587" cy="79.1585" r="4" transform="rotate(-32.8519 84.2587 79.1585)" fill="#FDEA6A"/>
<circle cx="102.702" cy="107.721" r="4" transform="rotate(-32.8519 102.702 107.721)" fill="#FDEA6A"/>
<circle cx="89.3368" cy="35.4068" r="4" transform="rotate(-32.8519 89.3368 35.4068)" fill="#FDEA6A"/>
<circle cx="107.782" cy="63.9694" r="4" transform="rotate(-32.8519 107.782 63.9694)" fill="#FDEA6A"/>
<circle cx="126.225" cy="92.532" r="4" transform="rotate(-32.8519 126.225 92.532)" fill="#FDEA6A"/>
<circle cx="112.858" cy="20.2177" r="4" transform="rotate(-32.8519 112.858 20.2177)" fill="#FDEA6A"/>
<circle cx="131.304" cy="48.7803" r="4" transform="rotate(-32.8519 131.304 48.7803)" fill="#FDEA6A"/>
<circle cx="149.747" cy="77.3429" r="4" transform="rotate(-32.8519 149.747 77.3429)" fill="#FDEA6A"/>
</g>
<path d="M221.984 54.872L223.88 55.509L224.481 53.7201L222.73 53.0163L221.984 54.872ZM217.088 52.904L217.834 51.0483L215.833 50.2439L215.181 52.2999L217.088 52.904ZM217.088 43.736L215.183 44.3456L215.839 46.3937L217.834 45.5917L217.088 43.736ZM221.984 41.768L222.73 43.6237L224.481 42.9198L223.88 41.1309L221.984 41.768ZM206.816 67.576C215.929 67.576 221.621 62.2304 223.88 55.509L220.088 54.235C218.315 59.5136 214.023 63.576 206.816 63.576V67.576ZM222.73 53.0163L217.834 51.0483L216.342 54.7597L221.238 56.7277L222.73 53.0163ZM215.181 52.2999C214.503 54.4398 213.472 56.0172 212.143 57.0621C210.83 58.0951 209.076 58.728 206.72 58.728V62.728C209.836 62.728 212.498 61.8729 214.617 60.2059C216.72 58.5508 218.137 56.2162 218.995 53.5081L215.181 52.2999ZM206.72 58.728C203.875 58.728 201.521 57.6819 199.87 55.9345C198.213 54.1806 197.152 51.5975 197.152 48.344H193.152C193.152 52.4825 194.515 56.0914 196.962 58.6815C199.415 61.2781 202.845 62.728 206.72 62.728V58.728ZM197.152 48.344C197.152 45.0897 198.214 42.4898 199.866 40.7212C201.511 38.96 203.841 37.912 206.624 37.912V33.912C202.783 33.912 199.377 35.384 196.942 37.9908C194.514 40.5902 193.152 44.2063 193.152 48.344H197.152ZM206.624 37.912C209.001 37.912 210.783 38.5555 212.118 39.5995C213.467 40.6546 214.508 42.2354 215.183 44.3456L218.993 43.1264C218.132 40.4366 216.701 38.1053 214.582 36.4485C212.449 34.7805 209.767 33.912 206.624 33.912V37.912ZM217.834 45.5917L222.73 43.6237L221.238 39.9123L216.342 41.8803L217.834 45.5917ZM223.88 41.1309C221.669 34.5533 215.881 29.064 206.72 29.064V33.064C213.975 33.064 218.363 37.2707 220.088 42.4051L223.88 41.1309ZM206.72 29.064C196.026 29.064 187.968 37.149 187.968 48.344H191.968C191.968 39.283 198.31 33.064 206.72 33.064V29.064ZM187.968 48.344C187.968 59.5023 196.037 67.576 206.816 67.576V63.576C198.299 63.576 191.968 57.3457 191.968 48.344H187.968ZM251.772 65L249.885 65.6635L250.355 67H251.772V65ZM256.812 65V67H259.645L258.697 64.3302L256.812 65ZM244.956 31.64L246.841 30.9702L246.368 29.64H244.956V31.64ZM238.812 31.64V29.64H237.398L236.927 30.9727L238.812 31.64ZM227.004 65L225.119 64.3327L224.175 67H227.004V65ZM232.044 65V67H233.461L233.931 65.6635L232.044 65ZM235.116 56.264V54.264H233.699L233.229 55.6005L235.116 56.264ZM248.7 56.264L250.587 55.6005L250.117 54.264H248.7V56.264ZM236.604 52.088L234.718 51.4214L233.776 54.088H236.604V52.088ZM241.932 37.016L243.82 36.3548L241.941 30.9911L240.046 36.3494L241.932 37.016ZM247.212 52.088V54.088H250.032L249.1 51.4268L247.212 52.088ZM251.772 67H256.812V63H251.772V67ZM258.697 64.3302L246.841 30.9702L243.072 32.3097L254.928 65.6698L258.697 64.3302ZM244.956 29.64H238.812V33.64H244.956V29.64ZM236.927 30.9727L225.119 64.3327L228.89 65.6673L240.698 32.3073L236.927 30.9727ZM227.004 67H232.044V63H227.004V67ZM233.931 65.6635L237.003 56.9275L233.229 55.6005L230.157 64.3365L233.931 65.6635ZM235.116 58.264H248.7V54.264H235.116V58.264ZM246.813 56.9275L249.885 65.6635L253.659 64.3365L250.587 55.6005L246.813 56.9275ZM238.49 52.7546L243.818 37.6826L240.046 36.3494L234.718 51.4214L238.49 52.7546ZM240.045 37.6772L245.325 52.7492L249.1 51.4268L243.82 36.3548L240.045 37.6772ZM247.212 50.088H236.604V54.088H247.212V50.088ZM280.238 40.136L278.324 40.716L278.946 42.7667L280.949 42.0056L280.238 40.136ZM285.038 38.312L285.749 40.1816L287.461 39.5309L286.963 37.7681L285.038 38.312ZM266.51 55.544L268.441 55.0222L267.865 52.8898L265.8 53.6744L266.51 55.544ZM261.71 57.368L261 55.4984L259.281 56.1518L259.788 57.9198L261.71 57.368ZM273.758 67.528C277.708 67.528 281.139 66.5087 283.628 64.5235C286.158 62.5051 287.566 59.5973 287.566 56.216H283.566C283.566 58.4027 282.695 60.1509 281.133 61.3965C279.53 62.6753 277.057 63.528 273.758 63.528V67.528ZM287.566 56.216C287.566 52.5577 286.268 49.9187 284.239 48.0034C282.303 46.176 279.808 45.1136 277.622 44.3028C275.271 43.4309 273.412 42.88 271.986 42.0572C270.709 41.32 270.286 40.6518 270.286 39.704H266.286C266.286 42.6202 268.023 44.388 269.986 45.5213C271.801 46.569 274.262 47.323 276.231 48.0532C278.364 48.8444 280.189 49.681 281.493 50.9121C282.705 52.0553 283.566 53.6343 283.566 56.216H287.566ZM270.286 39.704C270.286 39.0632 270.521 38.5933 270.966 38.2386C271.455 37.8492 272.362 37.48 273.854 37.48V33.48C271.747 33.48 269.869 33.9988 268.475 35.1093C267.036 36.2547 266.286 37.8968 266.286 39.704H270.286ZM273.854 37.48C275.213 37.48 276.124 37.783 276.756 38.2406C277.383 38.6936 277.939 39.4435 278.324 40.716L282.152 39.556C281.578 37.6605 280.598 36.0824 279.1 34.9994C277.609 33.921 275.808 33.48 273.854 33.48V37.48ZM280.949 42.0056L285.749 40.1816L284.328 36.4424L279.528 38.2664L280.949 42.0056ZM286.963 37.7681C285.423 32.3196 280.606 29.112 274.094 29.112V33.112C279.199 33.112 282.158 35.4724 283.114 38.8559L286.963 37.7681ZM274.094 29.112C270.311 29.112 267.085 30.1457 264.772 32.1241C262.431 34.1263 261.198 36.953 261.198 40.136H265.198C265.198 38.039 265.981 36.3537 267.372 35.1639C268.791 33.9503 271.014 33.112 274.094 33.112V29.112ZM261.198 40.136C261.198 43.6289 262.533 46.1254 264.566 47.9225C266.491 49.6242 268.971 50.6293 271.124 51.4211C273.434 52.2703 275.296 52.8601 276.688 53.7184C277.933 54.4858 278.43 55.238 278.43 56.36H282.43C282.43 53.402 280.774 51.5382 278.787 50.3136C276.949 49.1799 274.503 48.4017 272.505 47.6669C270.35 46.8747 268.521 46.0798 267.215 44.9255C266.018 43.8666 265.198 42.4511 265.198 40.136H261.198ZM278.43 56.36C278.43 57.2152 278.11 57.8082 277.539 58.2425C276.909 58.7218 275.821 59.112 274.19 59.112V63.112C276.399 63.112 278.431 62.5902 279.962 61.4255C281.551 60.2158 282.43 58.4328 282.43 56.36H278.43ZM274.19 59.112C272.565 59.112 271.316 58.6987 270.408 58.0406C269.509 57.3891 268.815 56.4049 268.441 55.0222L264.58 56.0658C265.166 58.2351 266.344 60.0349 268.061 61.2794C269.769 62.5173 271.879 63.112 274.19 63.112V59.112ZM265.8 53.6744L261 55.4984L262.421 59.2376L267.221 57.4136L265.8 53.6744ZM259.788 57.9198C261.569 64.1231 266.951 67.528 273.758 67.528V63.528C268.374 63.528 264.828 60.9809 263.633 56.8162L259.788 57.9198ZM315.589 31.64V29.64H313.589V31.64H315.589ZM315.589 45.512V47.512H317.589V45.512H315.589ZM300.037 45.512H298.037V47.512H300.037V45.512ZM300.037 31.64H302.037V29.64H300.037V31.64ZM294.949 31.64V29.64H292.949V31.64H294.949ZM294.949 65H292.949V67H294.949V65ZM300.037 65V67H302.037V65H300.037ZM300.037 50.072V48.072H298.037V50.072H300.037ZM315.589 50.072H317.589V48.072H315.589V50.072ZM315.589 65H313.589V67H315.589V65ZM320.677 65V67H322.677V65H320.677ZM320.677 31.64H322.677V29.64H320.677V31.64ZM313.589 31.64V45.512H317.589V31.64H313.589ZM315.589 43.512H300.037V47.512H315.589V43.512ZM302.037 45.512V31.64H298.037V45.512H302.037ZM300.037 29.64H294.949V33.64H300.037V29.64ZM292.949 31.64V65H296.949V31.64H292.949ZM294.949 67H300.037V63H294.949V67ZM302.037 65V50.072H298.037V65H302.037ZM300.037 52.072H315.589V48.072H300.037V52.072ZM313.589 50.072V65H317.589V50.072H313.589ZM315.589 67H320.677V63H315.589V67ZM322.677 65V31.64H318.677V65H322.677ZM320.677 29.64H315.589V33.64H320.677V29.64ZM350.076 47.288L349.205 45.4877L344.871 47.585L349.415 49.1757L350.076 47.288ZM331.836 31.64V29.64H329.836V31.64H331.836ZM331.836 65H329.836V67H331.836V65ZM336.876 45.656H334.876V47.656H336.876V45.656ZM336.876 35.768V33.768H334.876V35.768H336.876ZM336.876 60.872H334.876V62.872H336.876V60.872ZM336.876 49.784V47.784H334.876V49.784H336.876ZM350.947 49.0883C354.52 47.3596 357.02 43.9777 357.02 39.752H353.02C353.02 42.2463 351.584 44.3364 349.205 45.4877L350.947 49.0883ZM357.02 39.752C357.02 36.853 356.016 34.2525 353.962 32.3948C351.93 30.5564 349.087 29.64 345.756 29.64V33.64C348.377 33.64 350.167 34.3556 351.278 35.3612C352.369 36.3475 353.02 37.803 353.02 39.752H357.02ZM345.756 29.64H331.836V33.64H345.756V29.64ZM329.836 31.64V65H333.836V31.64H329.836ZM331.836 67H345.42V63H331.836V67ZM345.42 67C349.17 67 352.378 65.9947 354.675 63.9677C357.002 61.915 358.172 59.0085 358.172 55.688H354.172C354.172 58.0315 353.375 59.781 352.029 60.9683C350.654 62.1813 348.486 63 345.42 63V67ZM358.172 55.688C358.172 50.7601 355.335 47.0095 350.737 45.4003L349.415 49.1757C352.498 50.2545 354.172 52.5519 354.172 55.688H358.172ZM347.932 40.712C347.932 41.6403 347.575 42.3187 347.016 42.795C346.427 43.2958 345.507 43.656 344.316 43.656V47.656C346.293 47.656 348.181 47.0562 349.608 45.841C351.065 44.6013 351.932 42.8077 351.932 40.712H347.932ZM344.316 43.656H336.876V47.656H344.316V43.656ZM338.876 45.656V35.768H334.876V45.656H338.876ZM336.876 37.768H344.46V33.768H336.876V37.768ZM344.46 37.768C345.924 37.768 346.742 38.1675 347.184 38.5891C347.617 39.0022 347.932 39.6678 347.932 40.712H351.932C351.932 38.8282 351.336 37.0218 349.945 35.6949C348.563 34.3765 346.645 33.768 344.46 33.768V37.768ZM344.748 58.872H336.876V62.872H344.748V58.872ZM338.876 60.872V49.784H334.876V60.872H338.876ZM336.876 51.784H344.7V47.784H336.876V51.784ZM344.7 51.784C346.319 51.784 347.407 52.204 348.056 52.7549C348.663 53.2698 349.084 54.0624 349.084 55.304H353.084C353.084 53.0416 352.257 51.0742 350.644 49.7051C349.073 48.372 346.969 47.784 344.7 47.784V51.784ZM349.084 55.304C349.084 56.5967 348.676 57.3983 348.104 57.9031C347.498 58.4384 346.444 58.872 344.748 58.872V62.872C347.085 62.872 349.198 62.2736 350.752 60.9009C352.341 59.4977 353.084 57.5153 353.084 55.304H349.084ZM386.476 65L384.589 65.6635L385.059 67H386.476V65ZM391.516 65V67H394.349L393.4 64.3302L391.516 65ZM379.66 31.64L381.544 30.9702L381.072 29.64H379.66V31.64ZM373.516 31.64V29.64H372.102L371.63 30.9727L373.516 31.64ZM361.708 65L359.822 64.3327L358.878 67H361.708V65ZM366.748 65V67H368.165L368.635 65.6635L366.748 65ZM369.82 56.264V54.264H368.403L367.933 55.6005L369.82 56.264ZM383.404 56.264L385.291 55.6005L384.821 54.264H383.404V56.264ZM371.308 52.088L369.422 51.4214L368.48 54.088H371.308V52.088ZM376.636 37.016L378.523 36.3548L376.644 30.9911L374.75 36.3494L376.636 37.016ZM381.916 52.088V54.088H384.736L383.803 51.4268L381.916 52.088ZM386.476 67H391.516V63H386.476V67ZM393.4 64.3302L381.544 30.9702L377.775 32.3097L389.631 65.6698L393.4 64.3302ZM379.66 29.64H373.516V33.64H379.66V29.64ZM371.63 30.9727L359.822 64.3327L363.593 65.6673L375.401 32.3073L371.63 30.9727ZM361.708 67H366.748V63H361.708V67ZM368.635 65.6635L371.707 56.9275L367.933 55.6005L364.861 64.3365L368.635 65.6635ZM369.82 58.264H383.404V54.264H369.82V58.264ZM381.517 56.9275L384.589 65.6635L388.363 64.3365L385.291 55.6005L381.517 56.9275ZM373.194 52.7546L378.522 37.6826L374.75 36.3494L369.422 51.4214L373.194 52.7546ZM374.748 37.6772L380.028 52.7492L383.803 51.4268L378.523 36.3548L374.748 37.6772ZM381.916 50.088H371.308V54.088H381.916V50.088ZM428.493 54.872L430.389 55.509L430.99 53.7201L429.239 53.0163L428.493 54.872ZM423.597 52.904L424.343 51.0483L422.342 50.2439L421.69 52.2999L423.597 52.904ZM423.597 43.736L421.692 44.3456L422.347 46.3937L424.343 45.5917L423.597 43.736ZM428.493 41.768L429.239 43.6237L430.99 42.9198L430.389 41.1309L428.493 41.768ZM413.325 67.576C422.438 67.576 428.13 62.2304 430.389 55.509L426.597 54.235C424.823 59.5136 420.532 63.576 413.325 63.576V67.576ZM429.239 53.0163L424.343 51.0483L422.851 54.7597L427.747 56.7277L429.239 53.0163ZM421.69 52.2999C421.012 54.4398 419.98 56.0172 418.652 57.0621C417.339 58.0951 415.585 58.728 413.229 58.728V62.728C416.345 62.728 419.006 61.8729 421.125 60.2059C423.229 58.5508 424.645 56.2162 425.503 53.5081L421.69 52.2999ZM413.229 58.728C410.384 58.728 408.029 57.6819 406.379 55.9345C404.722 54.1806 403.661 51.5975 403.661 48.344H399.661C399.661 52.4825 401.024 56.0914 403.471 58.6815C405.924 61.2781 409.354 62.728 413.229 62.728V58.728ZM403.661 48.344C403.661 45.0897 404.722 42.4898 406.374 40.7212C408.019 38.96 410.35 37.912 413.133 37.912V33.912C409.292 33.912 405.886 35.384 403.451 37.9908C401.023 40.5902 399.661 44.2063 399.661 48.344H403.661ZM413.133 37.912C415.51 37.912 417.292 38.5555 418.627 39.5995C419.976 40.6546 421.017 42.2354 421.692 44.3456L425.502 43.1264C424.641 40.4366 423.209 38.1053 421.091 36.4485C418.958 34.7805 416.275 33.912 413.133 33.912V37.912ZM424.343 45.5917L429.239 43.6237L427.747 39.9123L422.851 41.8803L424.343 45.5917ZM430.389 41.1309C428.178 34.5533 422.39 29.064 413.229 29.064V33.064C420.484 33.064 424.871 37.2707 426.597 42.4051L430.389 41.1309ZM413.229 29.064C402.535 29.064 394.477 37.149 394.477 48.344H398.477C398.477 39.283 404.819 33.064 413.229 33.064V29.064ZM394.477 48.344C394.477 59.5023 402.546 67.576 413.325 67.576V63.576C404.807 63.576 398.477 57.3457 398.477 48.344H394.477ZM463.698 65V67H468.311L465.158 63.6329L463.698 65ZM447.426 47.624L445.975 46.2473L444.678 47.6149L445.966 48.9911L447.426 47.624ZM462.594 31.64L464.045 33.0167L467.249 29.64H462.594V31.64ZM456.642 31.64V29.64H455.796L455.207 30.2468L456.642 31.64ZM442.194 46.52H440.194V51.4508L443.629 47.9132L442.194 46.52ZM442.194 31.64H444.194V29.64H442.194V31.64ZM437.106 31.64V29.64H435.106V31.64H437.106ZM437.106 65H435.106V67H437.106V65ZM442.194 65V67H444.194V65H442.194ZM442.194 48.968L443.632 47.5777L440.194 44.0229V48.968H442.194ZM457.698 65L456.26 66.3903L456.85 67H457.698V65ZM465.158 63.6329L448.886 46.2569L445.966 48.9911L462.238 66.3671L465.158 63.6329ZM448.877 49.0007L464.045 33.0167L461.143 30.2633L445.975 46.2473L448.877 49.0007ZM462.594 29.64H456.642V33.64H462.594V29.64ZM455.207 30.2468L440.759 45.1268L443.629 47.9132L458.077 33.0332L455.207 30.2468ZM444.194 46.52V31.64H440.194V46.52H444.194ZM442.194 29.64H437.106V33.64H442.194V29.64ZM435.106 31.64V65H439.106V31.64H435.106ZM437.106 67H442.194V63H437.106V67ZM444.194 65V48.968H440.194V65H444.194ZM440.756 50.3583L456.26 66.3903L459.136 63.6097L443.632 47.5777L440.756 50.3583ZM457.698 67H463.698V63H457.698V67ZM471.799 54.488L469.8 54.5583L469.868 56.488H471.799V54.488ZM475.879 54.488V56.488H477.806L477.878 54.5622L475.879 54.488ZM476.791 29.912L478.789 29.9862L478.866 27.912H476.791V29.912ZM470.935 29.912V27.912H468.863L468.936 29.9823L470.935 29.912ZM471.799 56.488H475.879V52.488H471.799V56.488ZM477.878 54.5622L478.789 29.9862L474.792 29.8378L473.88 54.4138L477.878 54.5622ZM476.791 27.912H470.935V31.912H476.791V27.912ZM468.936 29.9823L469.8 54.5583L473.798 54.4177L472.934 29.8417L468.936 29.9823ZM473.863 67.432C476.771 67.432 479.031 65.2127 479.031 62.312H475.031C475.031 62.9633 474.603 63.432 473.863 63.432V67.432ZM479.031 62.312C479.031 59.3554 476.811 57.096 473.863 57.096V61.096C474.562 61.096 475.031 61.5246 475.031 62.312H479.031ZM473.863 57.096C470.982 57.096 468.695 59.3354 468.695 62.312H472.695C472.695 61.5446 473.191 61.096 473.863 61.096V57.096ZM468.695 62.312C468.695 65.2325 471.023 67.432 473.863 67.432V63.432C473.151 63.432 472.695 62.9435 472.695 62.312H468.695ZM487.826 54.488L485.828 54.5583L485.895 56.488H487.826V54.488ZM491.906 54.488V56.488H493.834L493.905 54.5622L491.906 54.488ZM492.818 29.912L494.817 29.9862L494.894 27.912H492.818V29.912ZM486.962 29.912V27.912H484.891L484.964 29.9823L486.962 29.912ZM487.826 56.488H491.906V52.488H487.826V56.488ZM493.905 54.5622L494.817 29.9862L490.82 29.8378L489.908 54.4138L493.905 54.5622ZM492.818 27.912H486.962V31.912H492.818V27.912ZM484.964 29.9823L485.828 54.5583L489.825 54.4177L488.961 29.8417L484.964 29.9823ZM489.89 67.432C492.799 67.432 495.058 65.2127 495.058 62.312H491.058C491.058 62.9633 490.63 63.432 489.89 63.432V67.432ZM495.058 62.312C495.058 59.3554 492.839 57.096 489.89 57.096V61.096C490.59 61.096 491.058 61.5246 491.058 62.312H495.058ZM489.89 57.096C487.01 57.096 484.722 59.3354 484.722 62.312H488.722C488.722 61.5446 489.219 61.096 489.89 61.096V57.096ZM484.722 62.312C484.722 65.2325 487.05 67.432 489.89 67.432V63.432C489.179 63.432 488.722 62.9435 488.722 62.312H484.722ZM503.854 54.488L501.855 54.5583L501.923 56.488H503.854V54.488ZM507.934 54.488V56.488H509.861L509.932 54.5622L507.934 54.488ZM508.846 29.912L510.844 29.9862L510.921 27.912H508.846V29.912ZM502.99 29.912V27.912H500.918L500.991 29.9823L502.99 29.912ZM503.854 56.488H507.934V52.488H503.854V56.488ZM509.932 54.5622L510.844 29.9862L506.847 29.8378L505.935 54.4138L509.932 54.5622ZM508.846 27.912H502.99V31.912H508.846V27.912ZM500.991 29.9823L501.855 54.5583L505.853 54.4177L504.989 29.8417L500.991 29.9823ZM505.918 67.432C508.826 67.432 511.086 65.2127 511.086 62.312H507.086C507.086 62.9633 506.658 63.432 505.918 63.432V67.432ZM511.086 62.312C511.086 59.3554 508.866 57.096 505.918 57.096V61.096C506.617 61.096 507.086 61.5246 507.086 62.312H511.086ZM505.918 57.096C503.037 57.096 500.75 59.3354 500.75 62.312H504.75C504.75 61.5446 505.246 61.096 505.918 61.096V57.096ZM500.75 62.312C500.75 65.2325 503.078 67.432 505.918 67.432V63.432C505.206 63.432 504.75 62.9435 504.75 62.312H500.75Z" fill="white"/>
<path d="M205.688 111.24H197.336V113.208H203.24C202.616 116.328 200.504 117.984 197.6 117.984C193.976 117.984 191.576 115.44 191.576 111.72C191.576 108 193.952 105.456 197.336 105.456C199.928 105.456 201.704 106.8 202.544 109.128L204.992 108.12C203.912 105.288 201.368 103.032 197.384 103.032C192.56 103.032 188.984 106.632 188.984 111.672C188.984 116.664 192.56 120.288 197.408 120.288C202.088 120.288 205.688 116.88 205.688 111.24ZM210.26 114.528H220.46C220.484 114.288 220.508 113.832 220.508 113.4C220.508 110.136 218.084 107.064 214.172 107.064C210.596 107.064 207.74 110.016 207.74 113.688C207.74 117.456 210.38 120.288 214.364 120.288C217.388 120.288 219.092 119.016 220.052 117.336L217.964 116.016C217.388 117.336 216.332 118.032 214.436 118.032C212.3 118.032 210.644 116.688 210.26 114.528ZM210.284 112.584C210.668 110.4 212.3 109.128 214.268 109.128C216.212 109.128 217.676 110.448 218.012 112.584H210.284ZM228.38 120H230.3V117.768H228.884C227.372 117.768 226.532 116.904 226.532 115.32V109.536H230.156V107.352H226.628V104.088H224.156V106.128C224.156 106.944 223.796 107.352 222.98 107.352H221.756V109.536H224.012V115.584C224.012 118.296 225.524 120 228.38 120ZM246.625 107.352L242.689 117.912L239.017 107.352H236.401L241.105 120H241.825L240.097 124.296H242.593L244.273 120L249.265 107.352H246.625ZM256.927 120.288C260.839 120.288 263.599 117.456 263.599 113.688C263.599 109.896 260.839 107.088 256.927 107.088C253.039 107.088 250.279 109.896 250.279 113.688C250.279 117.456 253.039 120.288 256.927 120.288ZM256.951 118.008C254.503 118.008 252.823 116.184 252.823 113.688C252.823 111.144 254.503 109.344 256.951 109.344C259.399 109.344 261.055 111.144 261.055 113.688C261.055 116.208 259.375 118.008 256.951 118.008ZM275.239 107.352V115.152C275.215 116.64 273.943 118.008 272.023 118.008C270.079 118.032 268.855 116.76 268.855 114.864V107.352H266.335V115.176C266.335 118.128 268.087 120.288 271.327 120.288C273.079 120.288 274.519 119.496 275.383 118.392V120H277.759V107.352H275.239ZM283.75 108.96V107.352H281.35V120H283.894V112.584C283.894 110.808 285.382 109.464 287.638 109.44V107.064C285.982 107.064 284.59 107.88 283.75 108.96ZM301.009 120.288C304.225 120.288 306.313 118.296 306.937 116.304L304.657 115.392C304.201 117 302.857 118.008 301.057 118.008C298.753 118.008 297.001 116.28 297.001 113.688C297.001 111.096 298.753 109.368 301.057 109.368C302.833 109.368 304.129 110.376 304.585 112.008L306.865 111.096C306.241 109.056 304.153 107.088 300.985 107.088C297.217 107.088 294.457 109.944 294.457 113.688C294.457 117.48 297.265 120.288 301.009 120.288ZM319.47 107.352V109.488C318.51 108.048 316.974 107.232 315.006 107.232C311.406 107.232 308.766 109.92 308.766 113.664C308.766 117.456 311.382 120.288 315.006 120.288C316.974 120.288 318.51 119.4 319.47 117.936V120H321.822V107.352H319.47ZM315.318 118.032C312.99 118.032 311.286 116.184 311.286 113.664C311.286 111.192 313.014 109.32 315.318 109.32C317.742 109.32 319.374 111.12 319.374 113.664C319.374 116.232 317.718 118.032 315.318 118.032ZM329.682 120.288C332.754 120.288 334.77 118.848 334.77 116.376C334.77 111.744 327.642 113.16 327.642 110.568C327.642 109.68 328.362 109.104 329.658 109.104C330.834 109.104 331.65 109.608 332.034 110.64L334.338 109.752C333.786 108.048 332.082 107.088 329.706 107.088C326.826 107.088 324.954 108.456 324.954 110.712C324.954 115.056 332.082 113.808 332.082 116.568C332.082 117.6 331.17 118.2 329.754 118.2C328.122 118.2 327.042 117.48 326.658 116.232L324.354 117.12C325.026 119.184 326.994 120.288 329.682 120.288ZM344.068 107.064C342.292 107.064 340.9 107.784 340.036 108.768V102.456H337.492V120H340.036V112.296C340.06 110.736 341.452 109.344 343.348 109.344C345.364 109.32 346.612 110.568 346.612 112.656V120H349.156V112.2C349.156 109.104 347.236 107.064 344.068 107.064ZM359.484 107.088C357.66 107.088 356.172 107.832 355.164 109.08V102.456H352.62V120H354.972V118.056C355.956 119.448 357.492 120.288 359.436 120.288C363.06 120.288 365.676 117.456 365.676 113.664C365.676 109.92 363.108 107.088 359.484 107.088ZM359.124 118.032C356.724 118.032 355.044 116.232 355.044 113.664C355.044 111.12 356.7 109.32 359.124 109.32C361.428 109.32 363.156 111.192 363.156 113.664C363.156 116.184 361.452 118.032 359.124 118.032ZM378.577 107.352V109.488C377.617 108.048 376.081 107.232 374.113 107.232C370.513 107.232 367.873 109.92 367.873 113.664C367.873 117.456 370.489 120.288 374.113 120.288C376.081 120.288 377.617 119.4 378.577 117.936V120H380.929V107.352H378.577ZM374.425 118.032C372.097 118.032 370.393 116.184 370.393 113.664C370.393 111.192 372.121 109.32 374.425 109.32C376.849 109.32 378.481 111.12 378.481 113.664C378.481 116.232 376.825 118.032 374.425 118.032ZM390.35 120.288C393.566 120.288 395.654 118.296 396.278 116.304L393.998 115.392C393.542 117 392.198 118.008 390.398 118.008C388.094 118.008 386.342 116.28 386.342 113.688C386.342 111.096 388.094 109.368 390.398 109.368C392.174 109.368 393.47 110.376 393.926 112.008L396.206 111.096C395.582 109.056 393.494 107.088 390.326 107.088C386.558 107.088 383.798 109.944 383.798 113.688C383.798 117.48 386.606 120.288 390.35 120.288ZM409.842 120L403.842 113.184L409.698 107.352H406.794L401.346 112.584V102.456H398.802V120H401.346V113.88L407.01 120H409.842ZM431.462 107.352L429.062 117.456L426.326 107.352H423.47L420.734 117.552L418.31 107.352H415.694L419.126 120H422.126L424.886 110.136L427.694 120H430.694L434.078 107.352H431.462ZM437.655 105.168C438.687 105.168 439.503 104.448 439.503 103.392C439.503 102.336 438.687 101.568 437.655 101.568C436.623 101.568 435.807 102.336 435.807 103.392C435.807 104.448 436.623 105.168 437.655 105.168ZM436.383 120H438.927V107.352H436.383V120ZM447.864 120H449.784V117.768H448.368C446.856 117.768 446.016 116.904 446.016 115.32V109.536H449.64V107.352H446.112V104.088H443.64V106.128C443.64 106.944 443.28 107.352 442.464 107.352H441.24V109.536H443.496V115.584C443.496 118.296 445.008 120 447.864 120ZM458.685 107.064C456.909 107.064 455.517 107.784 454.653 108.768V102.456H452.109V120H454.653V112.296C454.677 110.736 456.069 109.344 457.965 109.344C459.981 109.32 461.229 110.568 461.229 112.656V120H463.773V112.2C463.773 109.104 461.853 107.064 458.685 107.064ZM479.761 107.088C477.817 107.088 476.257 107.928 475.249 109.344V107.352H472.897V124.296H475.441V118.32C476.425 119.568 477.889 120.288 479.713 120.288C483.313 120.288 485.953 117.456 485.953 113.688C485.953 109.92 483.385 107.088 479.761 107.088ZM479.401 118.032C476.977 118.032 475.321 116.256 475.321 113.688C475.321 111.12 477.001 109.32 479.401 109.32C481.729 109.32 483.433 111.168 483.433 113.688C483.433 116.184 481.705 118.032 479.401 118.032ZM497.606 107.352V115.152C497.582 116.64 496.31 118.008 494.39 118.008C492.446 118.032 491.222 116.76 491.222 114.864V107.352H488.702V115.176C488.702 118.128 490.454 120.288 493.694 120.288C495.446 120.288 496.886 119.496 497.75 118.392V120H500.126V107.352H497.606ZM506.116 108.96V107.352H503.716V120H506.26V112.584C506.26 110.808 507.748 109.464 510.004 109.44V107.064C508.348 107.064 506.956 107.88 506.116 108.96ZM517.716 120.288C520.932 120.288 523.02 118.296 523.644 116.304L521.364 115.392C520.908 117 519.564 118.008 517.764 118.008C515.46 118.008 513.708 116.28 513.708 113.688C513.708 111.096 515.46 109.368 517.764 109.368C519.54 109.368 520.836 110.376 521.292 112.008L523.572 111.096C522.948 109.056 520.86 107.088 517.692 107.088C513.924 107.088 511.164 109.944 511.164 113.688C511.164 117.48 513.972 120.288 517.716 120.288ZM532.744 107.064C530.968 107.064 529.576 107.784 528.712 108.768V102.456H526.168V120H528.712V112.296C528.736 110.736 530.128 109.344 532.024 109.344C534.04 109.32 535.288 110.568 535.288 112.656V120H537.832V112.2C537.832 109.104 535.912 107.064 532.744 107.064ZM551.305 107.352V109.488C550.345 108.048 548.809 107.232 546.841 107.232C543.241 107.232 540.601 109.92 540.601 113.664C540.601 117.456 543.217 120.288 546.841 120.288C548.809 120.288 550.345 119.4 551.305 117.936V120H553.657V107.352H551.305ZM547.153 118.032C544.825 118.032 543.121 116.184 543.121 113.664C543.121 111.192 544.849 109.32 547.153 109.32C549.577 109.32 551.209 111.12 551.209 113.664C551.209 116.232 549.553 118.032 547.153 118.032ZM561.518 120.288C564.59 120.288 566.606 118.848 566.606 116.376C566.606 111.744 559.478 113.16 559.478 110.568C559.478 109.68 560.198 109.104 561.494 109.104C562.67 109.104 563.486 109.608 563.87 110.64L566.174 109.752C565.622 108.048 563.918 107.088 561.542 107.088C558.662 107.088 556.79 108.456 556.79 110.712C556.79 115.056 563.918 113.808 563.918 116.568C563.918 117.6 563.006 118.2 561.59 118.2C559.958 118.2 558.878 117.48 558.494 116.232L556.19 117.12C556.862 119.184 558.83 120.288 561.518 120.288ZM571.031 114.528H581.231C581.255 114.288 581.279 113.832 581.279 113.4C581.279 110.136 578.855 107.064 574.943 107.064C571.367 107.064 568.511 110.016 568.511 113.688C568.511 117.456 571.151 120.288 575.135 120.288C578.159 120.288 579.863 119.016 580.823 117.336L578.735 116.016C578.159 117.336 577.103 118.032 575.207 118.032C573.071 118.032 571.415 116.688 571.031 114.528ZM571.055 112.584C571.439 110.4 573.071 109.128 575.039 109.128C576.983 109.128 578.447 110.448 578.783 112.584H571.055ZM595.645 120.288C599.557 120.288 602.317 117.456 602.317 113.688C602.317 109.896 599.557 107.088 595.645 107.088C591.757 107.088 588.997 109.896 588.997 113.688C588.997 117.456 591.757 120.288 595.645 120.288ZM595.669 118.008C593.221 118.008 591.541 116.184 591.541 113.688C591.541 111.144 593.221 109.344 595.669 109.344C598.117 109.344 599.773 111.144 599.773 113.688C599.773 116.208 598.093 118.008 595.669 118.008ZM610.797 104.184H611.565V102.192H610.725C607.605 102.192 605.877 103.992 605.877 106.992V107.352H603.693V109.536H605.877V120H608.397V109.536H611.541V107.352H608.397V106.752C608.397 105.12 609.309 104.184 610.797 104.184ZM625.046 120.288C628.958 120.288 631.718 117.456 631.718 113.688C631.718 109.896 628.958 107.088 625.046 107.088C621.158 107.088 618.398 109.896 618.398 113.688C618.398 117.456 621.158 120.288 625.046 120.288ZM625.07 118.008C622.622 118.008 620.942 116.184 620.942 113.688C620.942 111.144 622.622 109.344 625.07 109.344C627.518 109.344 629.174 111.144 629.174 113.688C629.174 116.208 627.494 118.008 625.07 118.008ZM643.358 107.352V115.152C643.334 116.64 642.062 118.008 640.142 118.008C638.198 118.032 636.974 116.76 636.974 114.864V107.352H634.454V115.176C634.454 118.128 636.206 120.288 639.446 120.288C641.198 120.288 642.638 119.496 643.502 118.392V120H645.878V107.352H643.358ZM651.868 108.96V107.352H649.468V120H652.012V112.584C652.012 110.808 653.5 109.464 655.756 109.44V107.064C654.1 107.064 652.708 107.88 651.868 108.96ZM667.568 120.288C670.64 120.288 672.656 118.848 672.656 116.376C672.656 111.744 665.528 113.16 665.528 110.568C665.528 109.68 666.248 109.104 667.544 109.104C668.72 109.104 669.536 109.608 669.92 110.64L672.224 109.752C671.672 108.048 669.968 107.088 667.592 107.088C664.712 107.088 662.84 108.456 662.84 110.712C662.84 115.056 669.968 113.808 669.968 116.568C669.968 117.6 669.056 118.2 667.64 118.2C666.008 118.2 664.928 117.48 664.544 116.232L662.24 117.12C662.912 119.184 664.88 120.288 667.568 120.288ZM682.241 107.088C680.297 107.088 678.737 107.928 677.729 109.344V107.352H675.377V124.296H677.921V118.32C678.905 119.568 680.369 120.288 682.193 120.288C685.793 120.288 688.433 117.456 688.433 113.688C688.433 109.92 685.865 107.088 682.241 107.088ZM681.881 118.032C679.457 118.032 677.801 116.256 677.801 113.688C677.801 111.12 679.481 109.32 681.881 109.32C684.209 109.32 685.913 111.168 685.913 113.688C685.913 116.184 684.185 118.032 681.881 118.032ZM693.726 108.96V107.352H691.326V120H693.87V112.584C693.87 110.808 695.358 109.464 697.614 109.44V107.064C695.958 107.064 694.566 107.88 693.726 108.96ZM701.305 105.168C702.337 105.168 703.153 104.448 703.153 103.392C703.153 102.336 702.337 101.568 701.305 101.568C700.273 101.568 699.457 102.336 699.457 103.392C699.457 104.448 700.273 105.168 701.305 105.168ZM700.033 120H702.577V107.352H700.033V120ZM712.737 107.064C710.865 107.064 709.425 107.856 708.561 108.96V107.352H706.161V120H708.705V112.296C708.729 110.736 710.121 109.344 712.017 109.344C714.033 109.32 715.281 110.568 715.281 112.656V120H717.825V112.2C717.825 109.104 715.905 107.064 712.737 107.064ZM731.297 107.352V109.368C730.337 107.952 728.801 107.088 726.833 107.088C723.233 107.088 720.593 109.92 720.593 113.448C720.593 117 723.209 119.784 726.833 119.784C728.801 119.784 730.337 118.896 731.297 117.48V118.488C731.297 120.912 729.665 122.448 727.025 122.448C725.057 122.448 723.617 121.608 723.017 119.928L720.857 120.768C721.673 123.096 723.665 124.584 727.001 124.584C731.177 124.584 733.649 122.064 733.649 118.272V107.352H731.297ZM727.121 117.816C724.817 117.816 723.113 115.992 723.113 113.568C723.113 111.168 724.841 109.32 727.145 109.32C729.497 109.32 731.153 111.12 731.153 113.568C731.153 116.04 729.473 117.816 727.121 117.816ZM748.706 120.288C751.922 120.288 754.01 118.296 754.634 116.304L752.354 115.392C751.898 117 750.554 118.008 748.754 118.008C746.45 118.008 744.698 116.28 744.698 113.688C744.698 111.096 746.45 109.368 748.754 109.368C750.53 109.368 751.826 110.376 752.282 112.008L754.562 111.096C753.938 109.056 751.85 107.088 748.682 107.088C744.914 107.088 742.154 109.944 742.154 113.688C742.154 117.48 744.962 120.288 748.706 120.288ZM763.087 120.288C766.999 120.288 769.759 117.456 769.759 113.688C769.759 109.896 766.999 107.088 763.087 107.088C759.199 107.088 756.439 109.896 756.439 113.688C756.439 117.456 759.199 120.288 763.087 120.288ZM763.111 118.008C760.663 118.008 758.983 116.184 758.983 113.688C758.983 111.144 760.663 109.344 763.111 109.344C765.559 109.344 767.215 111.144 767.215 113.688C767.215 116.208 765.535 118.008 763.111 118.008ZM772.639 120H775.183V102.456H772.639V120ZM778.768 120H781.312V102.456H778.768V120ZM786.6 114.528H796.8C796.824 114.288 796.848 113.832 796.848 113.4C796.848 110.136 794.424 107.064 790.512 107.064C786.936 107.064 784.08 110.016 784.08 113.688C784.08 117.456 786.72 120.288 790.704 120.288C793.728 120.288 795.432 119.016 796.392 117.336L794.304 116.016C793.728 117.336 792.672 118.032 790.776 118.032C788.64 118.032 786.984 116.688 786.6 114.528ZM786.624 112.584C787.008 110.4 788.64 109.128 790.608 109.128C792.552 109.128 794.016 110.448 794.352 112.584H786.624ZM805.458 120.288C808.674 120.288 810.762 118.296 811.386 116.304L809.106 115.392C808.65 117 807.306 118.008 805.506 118.008C803.202 118.008 801.45 116.28 801.45 113.688C801.45 111.096 803.202 109.368 805.506 109.368C807.282 109.368 808.578 110.376 809.034 112.008L811.314 111.096C810.69 109.056 808.602 107.088 805.434 107.088C801.666 107.088 798.906 109.944 798.906 113.688C798.906 117.48 801.714 120.288 805.458 120.288ZM819.263 120H821.183V117.768H819.767C818.255 117.768 817.415 116.904 817.415 115.32V109.536H821.039V107.352H817.511V104.088H815.039V106.128C815.039 106.944 814.679 107.352 813.863 107.352H812.639V109.536H814.895V115.584C814.895 118.296 816.407 120 819.263 120ZM824.78 105.168C825.812 105.168 826.628 104.448 826.628 103.392C826.628 102.336 825.812 101.568 824.78 101.568C823.748 101.568 822.932 102.336 822.932 103.392C822.932 104.448 823.748 105.168 824.78 105.168ZM823.508 120H826.052V107.352H823.508V120ZM835.564 120.288C839.476 120.288 842.236 117.456 842.236 113.688C842.236 109.896 839.476 107.088 835.564 107.088C831.676 107.088 828.916 109.896 828.916 113.688C828.916 117.456 831.676 120.288 835.564 120.288ZM835.588 118.008C833.14 118.008 831.46 116.184 831.46 113.688C831.46 111.144 833.14 109.344 835.588 109.344C838.036 109.344 839.692 111.144 839.692 113.688C839.692 116.208 838.012 118.008 835.588 118.008ZM851.692 107.064C849.82 107.064 848.38 107.856 847.516 108.96V107.352H845.116V120H847.66V112.296C847.684 110.736 849.076 109.344 850.972 109.344C852.988 109.32 854.236 110.568 854.236 112.656V120H856.78V112.2C856.78 109.104 854.86 107.064 851.692 107.064Z" fill="white"/>
</svg>
