<svg width="77" height="66" viewBox="0 0 77 66" fill="none" xmlns="http://www.w3.org/2000/svg">
<path d="M19.0212 0.95792C17.7396 0.653725 16.4775 0.854353 15.2413 1.55336C13.9987 2.25236 13.0214 3.14554 12.3029 4.23288C12.1541 3.13907 11.7916 2.16174 11.2285 1.30093C10.659 0.433647 9.89523 0 8.91144 0C7.51989 0 6.41315 0.595447 5.61058 1.77987C4.80155 2.96429 4.36142 4.39466 4.28375 6.07098C4.20609 7.74729 4.30965 9.43008 4.59443 11.1258C4.87921 12.8215 5.39699 14.2584 6.14778 15.4428C6.89856 16.6273 7.7076 17.2227 8.57489 17.2227C10.0441 17.2227 11.811 16.2648 13.8822 14.3425C16.4776 11.896 18.4192 9.16472 19.7008 6.15512C20.9823 3.10022 20.7557 1.37214 19.0212 0.95792Z" fill="url(#paint0_linear_67_1583)"/>
<path d="M76.9232 29.9662C76.7938 29.5197 76.4831 29.319 76.0106 29.3837C75.5381 29.4484 75.0915 29.8303 74.6773 30.5358C73.6806 32.2639 72.1725 34.3415 70.1532 36.775C68.1338 39.2086 66.5934 40.4254 65.5255 40.4254C65.1113 40.4254 64.697 39.9853 64.2828 39.1115C63.8686 38.2313 63.6615 37.3964 63.6615 36.5873C63.6615 34.9369 63.901 33.0211 64.3864 30.84C64.8783 28.6653 65.3637 26.7301 65.8621 25.0408C66.3604 23.3516 66.6128 22.2772 66.6128 21.8177C66.6128 21.3581 66.1404 20.7821 65.2084 20.1025C64.2699 19.4229 63.422 19.0799 62.6712 19.0799C61.9398 19.0799 61.1632 19.7983 60.3347 21.2351C58.6325 19.7983 56.9562 19.0799 55.2993 19.0799C53.2023 19.0799 51.2994 19.8889 49.5907 21.507C47.8755 23.1251 46.5811 25.0667 45.7009 27.3256C45.1507 28.743 44.7753 30.1604 44.5682 31.5714C44.2446 31.7979 43.8951 32.0503 43.5197 32.3286C42.4518 33.1053 40.8725 34.3479 38.7755 36.0501C36.685 37.7523 34.7627 39.4675 33.0087 41.1956C32.6916 40.6131 32.2514 40.05 31.6754 39.5193C31.0994 38.9885 30.5428 38.5937 29.9797 38.3478C35.4035 33.39 38.1218 28.5682 38.1218 23.8953C38.1218 22.8727 37.8694 21.9795 37.371 21.2157C36.8726 20.452 36.2578 19.8825 35.5135 19.52C34.7692 19.1576 34.0702 18.8857 33.4165 18.7175C33.1705 18.6527 32.9375 18.6009 32.7045 18.5621C32.3226 18.4974 31.9602 18.4586 31.6301 18.4586C30.3097 18.4586 28.957 18.7433 27.559 19.2999C27.0348 19.5135 26.5235 19.7465 26.038 19.9925H26.0316C23.242 21.7788 20.1871 25.701 17.7341 29.3643C17.7341 29.3902 17.7341 29.4161 17.7406 29.4484C17.5464 29.6879 17.3134 30.018 17.0351 30.4322C16.9445 30.5681 16.8474 30.7235 16.7438 30.8788C16.6791 30.9759 16.6144 31.0794 16.5497 31.183C12.4656 37.6358 10.0774 40.3801 9.9997 40.4642C9.9997 40.4707 9.9997 40.4707 9.9997 40.4707C9.39778 40.9302 8.89939 41.1568 8.50458 41.1568C7.99327 41.1568 7.55963 40.7878 7.21012 40.0565C6.86062 39.3316 6.67941 38.1731 6.67941 36.5938C6.67941 34.9369 6.95771 32.924 7.51432 30.5552C8.07741 28.1864 8.62756 26.0505 9.17771 24.1477C9.72785 22.2513 9.9997 21.0734 9.9997 20.6138C9.9997 20.0766 9.46249 19.5783 8.39456 19.1187C7.32664 18.6592 6.30402 18.6398 5.3267 19.0799C4.18111 19.5653 3.00962 21.4682 1.80578 24.7884C0.595456 28.1087 0 30.95 0 33.3059C0 36.788 0.686058 39.4157 2.05818 41.2085C3.43678 42.9949 5.43672 43.888 8.06447 43.888C9.04179 43.888 10.1097 43.4673 11.2747 42.6324C12.4398 41.791 13.4753 40.8267 14.375 39.7329C15.2746 38.6326 16.1678 37.4158 17.0545 36.0631C17.0804 36.0243 17.1063 35.979 17.1386 35.9401C17.1904 35.8689 17.2357 35.7912 17.2875 35.72C17.5399 35.3252 17.7729 34.9693 17.98 34.6392C18.0059 34.6004 18.0318 34.555 18.0577 34.5162C18.0836 34.4774 18.1095 34.4321 18.1289 34.3997C18.213 34.2638 18.2907 34.1408 18.3684 34.0243C18.3878 33.992 18.4072 33.9661 18.4201 33.9337C18.6337 33.5842 18.8085 33.2865 18.9509 33.0341C18.9768 32.9888 19.0027 32.937 19.035 32.8917V32.8852C19.0609 32.8464 19.3716 32.3868 19.8376 31.7072C20.7049 30.4646 22.1288 28.497 23.3973 27.0473L23.4038 27.0408C23.4168 27.0214 23.4297 27.0019 23.4491 26.989C23.4621 26.976 23.475 26.9566 23.488 26.9372C23.5592 26.8531 23.6239 26.7754 23.6951 26.6912C23.8051 26.5553 23.9151 26.4259 24.0316 26.29C24.0834 26.2252 24.1481 26.1541 24.1999 26.0893C24.2581 26.0181 24.3164 25.9534 24.3811 25.8887C24.4394 25.8175 24.4976 25.7528 24.5624 25.6816C24.6206 25.6104 24.6853 25.5457 24.7436 25.4745C24.8083 25.3968 24.873 25.3256 24.9442 25.2479C25.0089 25.1768 25.0801 25.1055 25.1449 25.0343C25.2161 24.9632 25.2808 24.892 25.352 24.8208C25.4232 24.7496 25.4879 24.6784 25.5591 24.6072C25.6173 24.5489 25.6756 24.4907 25.7403 24.4324C25.7986 24.3742 25.8568 24.3159 25.9215 24.2641C25.9733 24.2124 26.0251 24.1606 26.0833 24.1088C26.1481 24.0441 26.2128 23.9859 26.2775 23.9276C26.3358 23.8758 26.4005 23.8176 26.4587 23.7658C26.5235 23.714 26.5817 23.6558 26.6464 23.604C26.6982 23.5522 26.7565 23.5069 26.8147 23.4551C26.8859 23.3969 26.9571 23.3386 27.0283 23.2804C27.3584 23.0086 27.7014 22.7497 28.0509 22.4972C29.1836 21.6817 30.1673 21.2481 30.9958 21.1898C31.0605 21.1834 31.1253 21.1834 31.19 21.1834C31.9408 21.1834 32.2903 21.6752 32.245 22.6461C32.1738 24.3742 31.0799 26.8919 28.957 30.1992C26.6723 33.7784 24.3747 36.3738 22.064 38.0112C21.844 38.1601 21.734 38.3866 21.734 38.7038C21.7598 39.4352 22.1741 40.1018 22.9766 40.7102C24.2193 41.6357 25.4685 41.6486 26.737 40.749C26.8535 40.6972 27.0024 40.6778 27.1707 40.6778C27.3454 40.6778 27.5526 40.7749 27.792 40.9691C28.0315 41.1632 28.2645 41.3962 28.4846 41.681C28.7046 41.9593 28.9247 42.3606 29.1447 42.8848C29.3648 43.4091 29.5331 43.9981 29.6561 44.6582C24.2517 50.7163 21.5527 56.1271 21.5527 60.8971C21.5527 63.6478 22.7954 65.02 25.2743 65.02C26.9506 65.02 28.5299 64.2433 29.9991 62.6835C31.4748 61.1301 32.6204 59.1367 33.4488 56.716C34.2773 54.2954 34.6915 51.8036 34.6915 49.2536C34.6915 47.1371 34.4844 45.3249 34.0766 43.8168C36.3613 41.3833 38.7302 39.105 41.1897 36.9692C42.3676 35.953 43.4291 35.0534 44.387 34.2703H44.3935C44.4323 36.665 45.1637 38.652 46.6005 40.2377C48.0697 41.8687 49.6101 42.6842 51.2153 42.6842C53.3317 42.6842 55.4028 40.6131 57.4222 36.4838C57.9594 38.406 58.8849 39.9982 60.1923 41.2603C61.5062 42.5289 63.1243 43.1567 65.0465 43.1567C66.2633 43.1567 67.5837 42.6001 69.0076 41.4804C70.4315 40.3671 71.7065 39.0209 72.8392 37.4676C73.9718 35.9078 74.8585 34.6262 75.4993 33.6166C76.1465 32.6069 76.5737 31.8885 76.7938 31.4807C77.0138 30.9241 77.0591 30.4193 76.9232 29.9662ZM28.9506 55.0009C28.3357 57.1497 27.6626 58.8648 26.9442 60.1463C26.2193 61.4278 25.6367 62.0621 25.1707 62.0621C24.2905 58.5347 25.8892 54.0818 29.9473 48.7034C29.902 50.7486 29.5719 52.8457 28.9506 55.0009ZM59.7263 23.2674L59.6551 23.4098L52.5485 38.2119C52.5485 38.2119 52.5421 38.2183 52.5421 38.2313C52.3803 38.5225 50.3933 41.927 49.1182 38.2119C47.7914 34.335 50.3091 25.3645 55.6229 23.028C60.9431 20.698 59.7263 23.2674 59.7263 23.2674Z" fill="#F2F2F3"/>
<path d="M43.8171 50.4446C44.1602 50.2051 44.3284 49.875 44.3284 49.4608C44.3284 49.0984 44.199 48.7941 43.9466 48.5417C43.6877 48.2958 43.377 48.1728 43.0081 48.1728H41.1182V52.8911H43.1569C43.5388 52.8911 43.8624 52.7616 44.1278 52.5092C44.3931 52.2503 44.5226 51.9332 44.5226 51.5578C44.5226 51.3054 44.4579 51.0853 44.3284 50.8911C44.2054 50.697 44.0307 50.5481 43.8171 50.4446ZM41.746 48.7618H43.0081C43.2023 48.7618 43.3641 48.833 43.5064 48.9754C43.6424 49.1178 43.7136 49.286 43.7136 49.4867C43.7136 49.6873 43.6488 49.8621 43.5129 49.998C43.377 50.1404 43.2087 50.2051 43.0145 50.2051H41.7525V48.7618H41.746ZM43.6877 52.0821C43.5453 52.2309 43.364 52.3021 43.1569 52.3021H41.746V50.7682H43.1569C43.364 50.7682 43.5388 50.8394 43.6877 50.9882C43.8365 51.1371 43.9077 51.3183 43.9077 51.5255C43.9077 51.752 43.8301 51.9397 43.6877 52.0821Z" fill="#F2F2F3"/>
<path d="M45.8949 50.8005H47.8819V50.218H45.8949V48.7683H48.0502V48.1728H45.2671V52.8976H48.089V52.3021H45.8949V50.8005Z" fill="#F2F2F3"/>
<path d="M53.3382 48.1728L52.0632 50.3863L50.7752 48.1728H50.0762L51.7396 50.9818V52.8976H52.3674V50.9882L54.0437 48.1728H53.3382Z" fill="#F2F2F3"/>
<path d="M56.4513 48.0886C55.7652 48.0886 55.1892 48.328 54.7167 48.8005C54.2442 49.273 54.0112 49.8555 54.0112 50.5351C54.0112 51.2146 54.2507 51.7907 54.7167 52.2696C55.1892 52.7486 55.7652 52.9816 56.4513 52.9816C57.1373 52.9816 57.7134 52.7421 58.1858 52.2696C58.6583 51.7907 58.8978 51.2146 58.8978 50.5351C58.8978 49.849 58.6583 49.273 58.1858 48.8005C57.7134 48.3215 57.1309 48.0886 56.4513 48.0886ZM57.7457 51.836C57.3962 52.192 56.9626 52.3667 56.4448 52.3667C55.927 52.3667 55.4934 52.192 55.1439 51.836C54.7944 51.48 54.6196 51.0464 54.6196 50.5286C54.6196 50.0043 54.7944 49.5707 55.1439 49.2147C55.4934 48.8588 55.927 48.684 56.4448 48.684C56.9626 48.684 57.3962 48.8588 57.7457 49.2147C58.0952 49.5707 58.27 50.0043 58.27 50.5286C58.27 51.0528 58.0952 51.4865 57.7457 51.836Z" fill="#F2F2F3"/>
<path d="M62.4771 51.2795C62.4771 51.6096 62.38 51.8749 62.1794 52.0691C61.9788 52.2633 61.7004 52.3604 61.3315 52.3604C60.9626 52.3604 60.6778 52.2633 60.4837 52.0691C60.283 51.8749 60.1859 51.6096 60.1859 51.2795V48.1728H59.5581V51.3119C59.5581 51.8167 59.7264 52.2244 60.0565 52.5286C60.3866 52.8328 60.8137 52.9817 61.3315 52.9817C61.8493 52.9817 62.2765 52.8328 62.6066 52.5286C62.9367 52.2244 63.0985 51.8167 63.0985 51.3119V48.1728H62.4771V51.2795Z" fill="#F2F2F3"/>
<path d="M24.2646 14.9895C24.9636 14.9895 25.5203 14.7888 25.941 14.3875C26.3552 13.9863 26.5688 13.4879 26.5688 12.9054V12.6594H24.2129V13.106H26.0834C26.038 13.5202 25.8568 13.8633 25.5397 14.1286C25.2225 14.394 24.7954 14.5299 24.2711 14.5299C23.6821 14.5299 23.2032 14.3357 22.8343 13.9539C22.4589 13.572 22.2777 13.0995 22.2777 12.5429C22.2777 11.9863 22.4653 11.5138 22.8343 11.132C23.2032 10.7501 23.6886 10.5559 24.2711 10.5559C24.6206 10.5559 24.9442 10.6401 25.2355 10.8148C25.5267 10.9831 25.7468 11.2161 25.8957 11.5074L26.3099 11.2614C26.1092 10.9119 25.8309 10.6272 25.4685 10.4136C25.106 10.2 24.7048 10.0964 24.2711 10.0964C23.5592 10.0964 22.9702 10.3359 22.5042 10.8084C22.0382 11.2808 21.8052 11.8633 21.8052 12.5429C21.8052 13.2225 22.0382 13.805 22.5042 14.2775C22.9637 14.75 23.5527 14.9895 24.2646 14.9895Z" fill="#F2F2F3"/>
<path d="M36.3163 14.4588H34.0315V12.7437H36.1156V12.2971H34.0315V10.6208H36.2839V10.1742H33.5591V14.9054H36.3163V14.4588Z" fill="#F2F2F3"/>
<path d="M45.9402 14.4588H43.785V10.1742H43.3125V14.9054H45.9402V14.4588Z" fill="#F2F2F3"/>
<path d="M55.558 14.4588H53.2733V12.7437H55.3573V12.2971H53.2733V10.6208H55.5256V10.1742H52.8008V14.9054H55.558V14.4588Z" fill="#F2F2F3"/>
<path d="M63.0272 10.1742H62.5547V14.9054H63.0272V10.1742Z" fill="#F2F2F3"/>
<path d="M57.4351 23.2999C57.4545 23.2935 57.4674 23.2741 57.4868 23.2676C57.4674 23.2805 57.448 23.287 57.4351 23.2999Z" fill="#F2F2F3"/>
<defs>
<linearGradient id="paint0_linear_67_1583" x1="4.26414" y1="8.6074" x2="20.5179" y2="8.6074" gradientUnits="userSpaceOnUse">
<stop offset="0.00356548" stop-color="#ED1A3B"/>
<stop offset="1" stop-color="#BE1D37"/>
</linearGradient>
</defs>
</svg>
